<svg width="87" height="60" viewBox="0 0 87 60" fill="none" xmlns="http://www.w3.org/2000/svg">
<path fill-rule="evenodd" clip-rule="evenodd" d="M78.6082 25.8507C81.642 23.9948 81.4667 19.6099 78.2262 17.91C72.2887 14.7953 65.1941 14.8234 59.2814 17.985L25.098 36.2635C24.3624 36.6569 23.4787 36.6556 22.7442 36.2602L12.2084 30.5875C11.8875 30.4147 11.507 30.3912 11.1673 30.5234L5.0983 32.8835C4.20057 33.2327 4.02264 34.4254 4.7794 35.0213L19.9777 46.9896C20.2214 47.1815 20.4986 47.2632 20.7697 47.2402C24.4515 46.9283 38.789 45.3578 53.614 39.0042C63.129 34.9264 72.2871 29.7177 78.6082 25.8507ZM79.3826 15.7057C84.2433 18.2555 84.6772 25.056 79.9072 27.9741C73.5358 31.8719 64.2639 37.1482 54.5945 41.2922C39.4169 47.7969 24.7775 49.3988 20.9798 49.7205C20.0425 49.7999 19.1468 49.5037 18.4377 48.9453L3.23936 36.977C0.969093 35.1892 1.50289 31.6109 4.19608 30.5636L10.265 28.2034C11.2841 27.8071 12.4257 27.8774 13.3885 28.3957L23.9242 34.0684L58.1077 15.7899C64.7475 12.2394 72.7148 12.2079 79.3826 15.7057Z" fill="#505F79"/>
<path fill-rule="evenodd" clip-rule="evenodd" d="M46.9482 49.9593L42.0836 51.8756L46.2534 34.5014L55.1121 31.3543L46.9482 49.9593ZM49.0215 51.4293C48.8895 51.7303 48.6437 51.9668 48.338 52.0872L40.7716 55.0679C39.8347 55.437 38.8702 54.5986 39.1052 53.6194L43.9905 33.2641C44.0887 32.8547 44.3873 32.5227 44.7841 32.3818L56.9922 28.0447C58.0199 27.6796 58.9868 28.7189 58.5486 29.7176L49.0215 51.4293Z" fill="#505F79"/>
<path fill-rule="evenodd" clip-rule="evenodd" d="M35.5797 20.3165L32.7514 21.7763L40.6736 24.883L44.3577 22.8296L35.5797 20.3165ZM35.7902 17.7876C35.4853 17.7003 35.1586 17.7327 34.8768 17.8781L29.1667 20.8252C28.2155 21.3161 28.2866 22.6992 29.2831 23.0899L40.3119 27.415C40.6583 27.5508 41.0473 27.5246 41.3723 27.3434L48.187 23.545C49.1546 23.0057 48.9886 21.5662 47.9237 21.2613L35.7902 17.7876Z" fill="#505F79"/>
<path fill-rule="evenodd" clip-rule="evenodd" d="M67.3506 19.9416C66.9969 19.3522 67.188 18.5877 67.7775 18.234L74.0005 14.5002C74.59 14.1465 75.3545 14.3377 75.7081 14.9271C76.0618 15.5165 75.8707 16.281 75.2812 16.6347L69.0582 20.3685C68.4687 20.7222 67.7042 20.5311 67.3506 19.9416Z" fill="#505F79"/>
</svg>
