<svg version="1.1" class="highcharts-root" style="font-family: -apple-system, BlinkMacSystemFont, Roboto, &quot;Segoe UI&quot;, &quot;Helvetica Neue&quot;, Helvetica, Arial, sans-serif; font-size: 13px; font-style: normal; font-variant: tabular-nums; font-weight: normal; font-stretch: normal; line-height: normal; color: rgb(38, 44, 45); fill: rgb(38, 44, 45);" xmlns="http://www.w3.org/2000/svg" width="1271" height="400" viewBox="0 0 1271 400" role="img" aria-label="Vehicle Replacement Analysis">
  <desc>Created with Highcharts 10.3.3</desc>
  <defs>
    <clipPath id="highcharts-ygn733y-1-">
      <rect x="0" y="0" width="1115" height="252" fill="none"></rect>
    </clipPath>
    <clipPath id="highcharts-ygn733y-10-">
      <rect x="0" y="0" width="1115" height="252" fill="none"></rect>
    </clipPath>
  </defs>
  <rect fill="none" class="highcharts-background" x="0" y="0" width="1271" height="400" rx="0" ry="0"></rect>
  <rect fill="none" class="highcharts-plot-background" x="132" y="55" width="1115" height="252"></rect>
  <g class="highcharts-plot-bands-0" data-z-index="0">
    <path fill="rgba(255,194,52,.1)" class="highcharts-plot-band " d="M 1007.5 55 L 1007.5 307 L 1166.5 307 L 1166.5 55 Z"></path>
  </g>
  <g class="highcharts-plot-lines-0" data-z-index="0">
    <path fill="none" class="highcharts-plot-line " stroke="#00B5AD" stroke-width="3" stroke-dasharray="3,9" d="M 132 184.5 L 1247 184.5"></path>
  </g><text x="142" text-anchor="start" class="highcharts-plot-line-label " data-z-index="0" transform="translate(0,0)" y="177" style="color: rgba(0, 124, 118, 0.8); fill: rgba(0, 124, 118, 0.8);">最低擁有成本</text>
  <g class="highcharts-grid highcharts-xaxis-grid" data-z-index="1">
    <path fill="none" stroke="#EDF1F2" stroke-width="1" stroke-dasharray="none" data-z-index="1" class="highcharts-grid-line" d="M 131.5 55 L 131.5 307" opacity="1"></path>
    <path fill="none" stroke="#EDF1F2" stroke-width="1" stroke-dasharray="none" data-z-index="1" class="highcharts-grid-line" d="M 290.5 55 L 290.5 307" opacity="1"></path>
    <path fill="none" stroke="#EDF1F2" stroke-width="1" stroke-dasharray="none" data-z-index="1" class="highcharts-grid-line" d="M 450.5 55 L 450.5 307" opacity="1"></path>
    <path fill="none" stroke="#EDF1F2" stroke-width="1" stroke-dasharray="none" data-z-index="1" class="highcharts-grid-line" d="M 609.5 55 L 609.5 307" opacity="1"></path>
    <path fill="none" stroke="#EDF1F2" stroke-width="1" stroke-dasharray="none" data-z-index="1" class="highcharts-grid-line" d="M 768.5 55 L 768.5 307" opacity="1"></path>
    <path fill="none" stroke="#EDF1F2" stroke-width="1" stroke-dasharray="none" data-z-index="1" class="highcharts-grid-line" d="M 927.5 55 L 927.5 307" opacity="1"></path>
    <path fill="none" stroke="#EDF1F2" stroke-width="1" stroke-dasharray="none" data-z-index="1" class="highcharts-grid-line" d="M 1087.5 55 L 1087.5 307" opacity="1"></path>
    <path fill="none" stroke="#EDF1F2" stroke-width="1" stroke-dasharray="none" data-z-index="1" class="highcharts-grid-line" d="M 1247.5 55 L 1247.5 307" opacity="1"></path>
  </g>
  <g class="highcharts-grid highcharts-yaxis-grid" data-z-index="1">
    <path fill="none" stroke="#EDF1F2" stroke-width="1" stroke-dasharray="none" data-z-index="1" class="highcharts-grid-line" d="M 132 307.5 L 1247 307.5" opacity="1"></path>
    <path fill="none" stroke="#EDF1F2" stroke-width="1" stroke-dasharray="none" data-z-index="1" class="highcharts-grid-line" d="M 132 244.5 L 1247 244.5" opacity="1"></path>
    <path fill="none" stroke="#EDF1F2" stroke-width="1" stroke-dasharray="none" data-z-index="1" class="highcharts-grid-line" d="M 132 181.5 L 1247 181.5" opacity="1"></path>
    <path fill="none" stroke="#EDF1F2" stroke-width="1" stroke-dasharray="none" data-z-index="1" class="highcharts-grid-line" d="M 132 118.5 L 1247 118.5" opacity="1"></path>
    <path fill="none" stroke="#EDF1F2" stroke-width="1" stroke-dasharray="none" data-z-index="1" class="highcharts-grid-line" d="M 132 54.5 L 1247 54.5" opacity="1"></path>
  </g>
  <rect fill="none" class="highcharts-plot-border" data-z-index="1" stroke="#cccccc" stroke-width="0" x="132" y="55" width="1115" height="252"></rect>
  <g class="highcharts-axis highcharts-xaxis" data-z-index="2"><text x="689.5" data-z-index="7" text-anchor="middle" transform="translate(0,0)" class="highcharts-axis-title" style="color: rgb(38, 44, 45); font-size: 1.2em; font-weight: 600; text-transform: none; fill: rgb(38, 44, 45);" y="378">車輛年齡</text>
    <path fill="none" class="highcharts-axis-line" stroke="#b9c1c4" stroke-width="1" data-z-index="7" d="M 132 307.5 L 1247 307.5"></path>
  </g>
  <g class="highcharts-axis highcharts-yaxis" data-z-index="2"><text x="34.671875" data-z-index="7" text-anchor="middle" transform="translate(0,0) rotate(270 34.671875 181)" class="highcharts-axis-title" style="color: rgb(38, 44, 45); font-size: 1.2em; font-weight: 600; text-transform: none; fill: rgb(38, 44, 45);" y="181">年度成本／每英里</text>
    <path fill="none" class="highcharts-axis-line" stroke="#b9c1c4" stroke-width="0" data-z-index="7" d="M 132 55 L 132 307"></path>
  </g>
  <path fill="none" class="highcharts-crosshair highcharts-crosshair-thin" data-z-index="2" stroke="#cccccc" stroke-width="1" d="M 131.5 55 L 131.5 307" style="pointer-events: none;" visibility="hidden"></path>
  <g class="highcharts-series-group" data-z-index="3">
    <g class="highcharts-series highcharts-series-0 highcharts-areaspline-series" data-z-index="0.1" opacity="1" transform="translate(132,55) scale(1 1)" clip-path="url(#highcharts-ygn733y-10-)">
      <path fill="rgba(0,181,173,.2)" d="M 0 50.3622 C 0 50.3622 95.57142857142598 62.39681000000021 159.28571428571 69.2286 C 222.999999999998 76.06039000000021 254.85714285714198 78.1959631249998 318.57142857143 84.52115 C 382.28571428571394 90.8463368749998 414.142857142856 95.55979825000014 477.85714285714 100.85453437499999 C 541.571428571428 106.14927050000016 573.4285714285719 106.89373187499986 637.14285714286 110.99483062499999 C 700.8571428571439 115.09592937499987 732.714285714286 117.72224612500013 796.42857142857 121.36002812500001 C 860.142857142858 124.99781012500013 892.000000000002 129.18374062499998 955.71428571429 129.18374062499998 C 1019.428571428574 129.18374062499998 1115 122.03152499999999 1115 122.03152499999999 L 1115 186.606525 C 1115 186.606525 1019.428571428574 199.0805 955.71428571429 201.2646 C 892.000000000002 203.4487 860.142857142858 202.28273199999995 796.42857142857 203.4487 C 732.714285714286 204.61466799999997 700.8571428571439 206.08007000000003 637.14285714286 207.09444 C 573.4285714285719 208.10881 541.571428571428 208.52055000000001 477.85714285714 208.52055000000001 C 414.142857142856 208.52055000000001 382.28571428571394 205.9274 318.57142857143 205.9274 C 254.85714285714198 205.9274 222.999999999998 206.65413999999998 159.28571428571 207.0411 C 95.57142857142598 207.42806 0 207.8622 0 207.8622 Z" class="highcharts-area" data-z-index="0"></path>
      <path fill="none" d="M 0 50.3622 C 0 50.3622 95.57142857142598 62.39681000000021 159.28571428571 69.2286 C 222.999999999998 76.06039000000021 254.85714285714198 78.1959631249998 318.57142857143 84.52115 C 382.28571428571394 90.8463368749998 414.142857142856 95.55979825000014 477.85714285714 100.85453437499999 C 541.571428571428 106.14927050000016 573.4285714285719 106.89373187499986 637.14285714286 110.99483062499999 C 700.8571428571439 115.09592937499987 732.714285714286 117.72224612500013 796.42857142857 121.36002812500001 C 860.142857142858 124.99781012500013 892.000000000002 129.18374062499998 955.71428571429 129.18374062499998 C 1019.428571428574 129.18374062499998 1115 122.03152499999999 1115 122.03152499999999" class="highcharts-graph" data-z-index="1" stroke="rgba(0,181,173,.2)" stroke-width="0" stroke-linejoin="round" stroke-linecap="round"></path>
      <path fill="rgba(192,192,192,0.0001)" d="M 0 50.3622 C 0 50.3622 95.57142857142598 62.39681000000021 159.28571428571 69.2286 C 222.999999999998 76.06039000000021 254.85714285714198 78.1959631249998 318.57142857143 84.52115 C 382.28571428571394 90.8463368749998 414.142857142856 95.55979825000014 477.85714285714 100.85453437499999 C 541.571428571428 106.14927050000016 573.4285714285719 106.89373187499986 637.14285714286 110.99483062499999 C 700.8571428571439 115.09592937499987 732.714285714286 117.72224612500013 796.42857142857 121.36002812500001 C 860.142857142858 124.99781012500013 892.000000000002 129.18374062499998 955.71428571429 129.18374062499998 C 1019.428571428574 129.18374062499998 1115 122.03152499999999 1115 122.03152499999999 L 1115 186.606525 C 1115 186.606525 1019.428571428574 199.0805 955.71428571429 201.2646 C 892.000000000002 203.4487 860.142857142858 202.28273199999995 796.42857142857 203.4487 C 732.714285714286 204.61466799999997 700.8571428571439 206.08007000000003 637.14285714286 207.09444 C 573.4285714285719 208.10881 541.571428571428 208.52055000000001 477.85714285714 208.52055000000001 C 414.142857142856 208.52055000000001 382.28571428571394 205.9274 318.57142857143 205.9274 C 254.85714285714198 205.9274 222.999999999998 206.65413999999998 159.28571428571 207.0411 C 95.57142857142598 207.42806 0 207.8622 0 207.8622 Z" data-z-index="2" class="highcharts-tracker-area" stroke-linecap="round" stroke-linejoin="round" stroke="rgba(192,192,192,0.0001)" stroke-width="0"></path>
    </g>
    <g class="highcharts-markers highcharts-series-0 highcharts-areaspline-series highcharts-tracker" data-z-index="0.1" opacity="1" transform="translate(132,55) scale(1 1)" clip-path="none"></g>
    <g class="highcharts-series highcharts-series-1 highcharts-areaspline-series" data-z-index="0.1" opacity="1" transform="translate(132,55) scale(1 1)" clip-path="url(#highcharts-ygn733y-10-)">
      <path fill="rgba(0,181,173,.5)" d="M 0 207.8622 C 0 207.8622 95.57142857142598 207.42806 159.28571428571 207.0411 C 222.999999999998 206.65413999999998 254.85714285714198 205.9274 318.57142857143 205.9274 C 382.28571428571394 205.9274 414.142857142856 208.52055000000001 477.85714285714 208.52055000000001 C 541.571428571428 208.52055000000001 573.4285714285719 208.10881 637.14285714286 207.09444 C 700.8571428571439 206.08007000000003 732.714285714286 204.61466799999997 796.42857142857 203.4487 C 860.142857142858 202.28273199999995 892.000000000002 203.4487 955.71428571429 201.2646 C 1019.428571428574 199.0805 1115 186.606525 1115 186.606525 L 1115 219.135 C 1115 219.135 1019.428571428574 219.943 955.71428571429 220.44 C 892.000000000002 220.937 860.142857142858 221.188 796.42857142857 221.62 C 732.714285714286 222.052 700.8571428571439 222.19400000000002 637.14285714286 222.6 C 573.4285714285719 223.006 541.571428571428 223.202 477.85714285714 223.65 C 414.142857142856 224.098 382.28571428571394 224.37800000000001 318.57142857143 224.84 C 254.85714285714198 225.30200000000005 222.999999999998 225.568 159.28571428571 225.96 C 95.57142857142598 226.352 0 226.8 0 226.8 Z" class="highcharts-area" data-z-index="0"></path>
      <path fill="none" d="M 0 207.8622 C 0 207.8622 95.57142857142598 207.42806 159.28571428571 207.0411 C 222.999999999998 206.65413999999998 254.85714285714198 205.9274 318.57142857143 205.9274 C 382.28571428571394 205.9274 414.142857142856 208.52055000000001 477.85714285714 208.52055000000001 C 541.571428571428 208.52055000000001 573.4285714285719 208.10881 637.14285714286 207.09444 C 700.8571428571439 206.08007000000003 732.714285714286 204.61466799999997 796.42857142857 203.4487 C 860.142857142858 202.28273199999995 892.000000000002 203.4487 955.71428571429 201.2646 C 1019.428571428574 199.0805 1115 186.606525 1115 186.606525" class="highcharts-graph" data-z-index="1" stroke="rgba(0,181,173,.5)" stroke-width="0" stroke-linejoin="round" stroke-linecap="round"></path>
      <path fill="rgba(192,192,192,0.0001)" d="M 0 207.8622 C 0 207.8622 95.57142857142598 207.42806 159.28571428571 207.0411 C 222.999999999998 206.65413999999998 254.85714285714198 205.9274 318.57142857143 205.9274 C 382.28571428571394 205.9274 414.142857142856 208.52055000000001 477.85714285714 208.52055000000001 C 541.571428571428 208.52055000000001 573.4285714285719 208.10881 637.14285714286 207.09444 C 700.8571428571439 206.08007000000003 732.714285714286 204.61466799999997 796.42857142857 203.4487 C 860.142857142858 202.28273199999995 892.000000000002 203.4487 955.71428571429 201.2646 C 1019.428571428574 199.0805 1115 186.606525 1115 186.606525 L 1115 219.135 C 1115 219.135 1019.428571428574 219.943 955.71428571429 220.44 C 892.000000000002 220.937 860.142857142858 221.188 796.42857142857 221.62 C 732.714285714286 222.052 700.8571428571439 222.19400000000002 637.14285714286 222.6 C 573.4285714285719 223.006 541.571428571428 223.202 477.85714285714 223.65 C 414.142857142856 224.098 382.28571428571394 224.37800000000001 318.57142857143 224.84 C 254.85714285714198 225.30200000000005 222.999999999998 225.568 159.28571428571 225.96 C 95.57142857142598 226.352 0 226.8 0 226.8 Z" data-z-index="2" class="highcharts-tracker-area" stroke-linecap="round" stroke-linejoin="round" stroke="rgba(192,192,192,0.0001)" stroke-width="0"></path>
    </g>
    <g class="highcharts-markers highcharts-series-1 highcharts-areaspline-series highcharts-tracker" data-z-index="0.1" opacity="1" transform="translate(132,55) scale(1 1)" clip-path="none"></g>
    <g class="highcharts-series highcharts-series-2 highcharts-areaspline-series" data-z-index="0.1" opacity="1" transform="translate(132,55) scale(1 1)" clip-path="url(#highcharts-ygn733y-10-)">
      <path fill="rgba(0,181,173,.8)" d="M 0 226.8 C 0 226.8 95.57142857142598 226.352 159.28571428571 225.96 C 222.999999999998 225.568 254.85714285714198 225.30200000000005 318.57142857143 224.84 C 382.28571428571394 224.37800000000001 414.142857142856 224.098 477.85714285714 223.65 C 541.571428571428 223.202 573.4285714285719 223.006 637.14285714286 222.6 C 700.8571428571439 222.19400000000002 732.714285714286 222.052 796.42857142857 221.62 C 860.142857142858 221.188 892.000000000002 220.937 955.71428571429 220.44 C 1019.428571428574 219.943 1115 219.135 1115 219.135 L 1115 252 C 1115 252 1019.428571428574 252 955.71428571429 252 C 892.000000000002 252 860.142857142858 252 796.42857142857 252 C 732.714285714286 252 700.8571428571439 252 637.14285714286 252 C 573.4285714285719 252 541.571428571428 252 477.85714285714 252 C 414.142857142856 252 382.28571428571394 252 318.57142857143 252 C 254.85714285714198 252 222.999999999998 252 159.28571428571 252 C 95.57142857142598 252 0 252 0 252 Z" class="highcharts-area" data-z-index="0"></path>
      <path fill="none" d="M 0 226.8 C 0 226.8 95.57142857142598 226.352 159.28571428571 225.96 C 222.999999999998 225.568 254.85714285714198 225.30200000000005 318.57142857143 224.84 C 382.28571428571394 224.37800000000001 414.142857142856 224.098 477.85714285714 223.65 C 541.571428571428 223.202 573.4285714285719 223.006 637.14285714286 222.6 C 700.8571428571439 222.19400000000002 732.714285714286 222.052 796.42857142857 221.62 C 860.142857142858 221.188 892.000000000002 220.937 955.71428571429 220.44 C 1019.428571428574 219.943 1115 219.135 1115 219.135" class="highcharts-graph" data-z-index="1" stroke="rgba(0,181,173,.8)" stroke-width="0" stroke-linejoin="round" stroke-linecap="round"></path>
      <path fill="rgba(192,192,192,0.0001)" d="M 0 226.8 C 0 226.8 95.57142857142598 226.352 159.28571428571 225.96 C 222.999999999998 225.568 254.85714285714198 225.30200000000005 318.57142857143 224.84 C 382.28571428571394 224.37800000000001 414.142857142856 224.098 477.85714285714 223.65 C 541.571428571428 223.202 573.4285714285719 223.006 637.14285714286 222.6 C 700.8571428571439 222.19400000000002 732.714285714286 222.052 796.42857142857 221.62 C 860.142857142858 221.188 892.000000000002 220.937 955.71428571429 220.44 C 1019.428571428574 219.943 1115 219.135 1115 219.135 L 1115 252 C 1115 252 1019.428571428574 252 955.71428571429 252 C 892.000000000002 252 860.142857142858 252 796.42857142857 252 C 732.714285714286 252 700.8571428571439 252 637.14285714286 252 C 573.4285714285719 252 541.571428571428 252 477.85714285714 252 C 414.142857142856 252 382.28571428571394 252 318.57142857143 252 C 254.85714285714198 252 222.999999999998 252 159.28571428571 252 C 95.57142857142598 252 0 252 0 252 Z" data-z-index="2" class="highcharts-tracker-area" stroke-linecap="round" stroke-linejoin="round" stroke="rgba(192,192,192,0.0001)" stroke-width="0"></path>
    </g>Optima
    <g class="highcharts-markers highcharts-series-2 highcharts-areaspline-series highcharts-tracker" data-z-index="0.1" opacity="1" transform="translate(132,55) scale(1 1)" clip-path="none"></g>
    <g class="highcharts-series highcharts-series-3 highcharts-spline-series" data-z-index="0.1" opacity="1" transform="translate(132,55) scale(1 1)" clip-path="url(#highcharts-ygn733y-10-)">
      <path fill="none" d="M 0 50.3622 C 0 50.3622 95.57142857142598 62.39681000000021 159.28571428571 69.2286 C 222.999999999998 76.06039000000021 254.85714285714198 78.1959631249998 318.57142857143 84.52115 C 382.28571428571394 90.8463368749998 414.142857142856 95.55979825000014 477.85714285714 100.85453437499999 C 541.571428571428 106.14927050000016 573.4285714285719 106.89373187499986 637.14285714286 110.99483062499999 C 700.8571428571439 115.09592937499987 732.714285714286 117.72224612500013 796.42857142857 121.36002812500001 C 860.142857142858 124.99781012500013 892.000000000002 129.18374062499998 955.71428571429 129.18374062499998 C 1019.428571428574 129.18374062499998 1115 122.03152499999999 1115 122.03152499999999" class="highcharts-graph" data-z-index="1" stroke="#00B5AD" stroke-width="4" stroke-linejoin="round" stroke-linecap="round"></path>
      <path fill="none" d="M 0 50.3622 C 0 50.3622 95.57142857142598 62.39681000000021 159.28571428571 69.2286 C 222.999999999998 76.06039000000021 254.85714285714198 78.1959631249998 318.57142857143 84.52115 C 382.28571428571394 90.8463368749998 414.142857142856 95.55979825000014 477.85714285714 100.85453437499999 C 541.571428571428 106.14927050000016 573.4285714285719 106.89373187499986 637.14285714286 110.99483062499999 C 700.8571428571439 115.09592937499987 732.714285714286 117.72224612500013 796.42857142857 121.36002812500001 C 860.142857142858 124.99781012500013 892.000000000002 129.18374062499998 955.71428571429 129.18374062499998 C 1019.428571428574 129.18374062499998 1115 122.03152499999999 1115 122.03152499999999" data-z-index="2" class="highcharts-tracker-line" stroke-linecap="round" stroke-linejoin="round" stroke="rgba(192,192,192,0.0001)" stroke-width="24"></path>
    </g>
    <g class="highcharts-markers highcharts-series-3 highcharts-spline-series highcharts-tracker" data-z-index="0.1" opacity="1" transform="translate(132,55) scale(1 1)" clip-path="none"></g>
  </g><text x="636" text-anchor="middle" class="highcharts-title" data-z-index="4" style="color: rgb(104, 117, 122); font-size: 18px; fill: rgb(104, 117, 122);" y="30">車輛更換分析</text><text x="636" text-anchor="middle" class="highcharts-subtitle" data-z-index="4" style="color: rgb(102, 102, 102); fill: rgb(102, 102, 102);" y="55"></text><text x="16" text-anchor="start" class="highcharts-caption" data-z-index="4" style="color: rgb(102, 102, 102); fill: rgb(102, 102, 102);" y="397"></text>
  <g class="highcharts-plot-lines-4" data-z-index="4">
    <path fill="none" class="highcharts-plot-line " stroke="#8D989C" stroke-width="2" stroke-dasharray="2,6" d="M 1247 55 L 1247 307"></path>
    <path fill="none" class="highcharts-plot-line " stroke="#CC5E10" stroke-width="3" stroke-dasharray="3,9" d="M 1087.5 55 L 1087.5 307"></path>
  </g><text x="1257" class="highcharts-plot-line-label " data-z-index="4" transform="translate(0,0) rotate(90 1257 65)" y="65" style="color: rgb(141, 152, 156); fill: rgb(141, 152, 156);">預計更換</text><text x="1098" class="highcharts-plot-line-label " data-z-index="4" transform="translate(0,0) rotate(90 1098 65)" y="65" style="color: rgb(204, 94, 16); fill: rgb(204, 94, 16);">最佳替換</text>
  <g class="highcharts-axis-labels highcharts-xaxis-labels" data-z-index="7"><text x="132" style="color: rgb(104, 117, 122); cursor: default; font-size: 12px; letter-spacing: 0.02em; fill: rgb(104, 117, 122);" text-anchor="middle" transform="translate(0,0)" y="327" opacity="1">1</text><text x="291.28571428571" text-anchor="middle" transform="translate(0,0)" style="color: rgb(104, 117, 122); cursor: default; font-size: 12px; letter-spacing: 0.02em; fill: rgb(104, 117, 122);" y="327" opacity="1">2</text><text x="450.57142857143" text-anchor="middle" transform="translate(0,0)" style="color: rgb(104, 117, 122); cursor: default; font-size: 12px; letter-spacing: 0.02em; fill: rgb(104, 117, 122);" y="327" opacity="1">3</text><text x="609.85714285714" text-anchor="middle" transform="translate(0,0)" style="color: rgb(104, 117, 122); cursor: default; font-size: 12px; letter-spacing: 0.02em; fill: rgb(104, 117, 122);" y="327" opacity="1">4</text><text x="769.14285714286" text-anchor="middle" transform="translate(0,0)" style="color: rgb(104, 117, 122); cursor: default; font-size: 12px; letter-spacing: 0.02em; fill: rgb(104, 117, 122);" y="327" opacity="1">5</text><text x="928.42857142857" text-anchor="middle" transform="translate(0,0)" style="color: rgb(104, 117, 122); cursor: default; font-size: 12px; letter-spacing: 0.02em; fill: rgb(104, 117, 122);" y="327" opacity="1">6</text><text x="1087.7142857143" text-anchor="middle" transform="translate(0,0)" style="color: rgb(104, 117, 122); cursor: default; font-size: 12px; letter-spacing: 0.02em; fill: rgb(104, 117, 122);" y="327" opacity="1">7</text><text x="1247" text-anchor="middle" transform="translate(0,0)" style="color: rgb(104, 117, 122); cursor: default; font-size: 12px; letter-spacing: 0.02em; fill: rgb(104, 117, 122);" y="327" opacity="1">8</text></g>
  <g class="highcharts-axis-labels highcharts-yaxis-labels" data-z-index="7"><text x="117" style="color: rgb(104, 117, 122); cursor: default; font-size: 12px; letter-spacing: 0.02em; fill: rgb(104, 117, 122);" text-anchor="end" transform="translate(0,0)" y="311" opacity="1">$0.00/mi</text><text x="117" text-anchor="end" transform="translate(0,0)" style="color: rgb(104, 117, 122); cursor: default; font-size: 12px; letter-spacing: 0.02em; fill: rgb(104, 117, 122);" y="59" opacity="1">$1.00/mi</text><text x="117" text-anchor="end" transform="translate(0,0)" style="color: rgb(104, 117, 122); cursor: default; font-size: 12px; letter-spacing: 0.02em; fill: rgb(104, 117, 122);" y="248" opacity="1">$0.25/mi</text><text x="117" text-anchor="end" transform="translate(0,0)" style="color: rgb(104, 117, 122); cursor: default; font-size: 12px; letter-spacing: 0.02em; fill: rgb(104, 117, 122);" y="185" opacity="1">$0.50/mi</text><text x="117" text-anchor="end" transform="translate(0,0)" style="color: rgb(104, 117, 122); cursor: default; font-size: 12px; letter-spacing: 0.02em; fill: rgb(104, 117, 122);" y="122" opacity="1">$0.75/mi</text></g>
  <g class="highcharts-label highcharts-tooltip highcharts-color-undefined" data-z-index="8" style="cursor: default; white-space: nowrap; pointer-events: none;" transform="translate(148,133)" opacity="0" visibility="hidden">
    <path fill="rgba(255, 255, 255, 0.95)" class="highcharts-label-box highcharts-tooltip-box" d="M 4.5 0.5 L 186.5 0.5 C 190.5 0.5 190.5 0.5 190.5 4.5 L 190.5 140.5 C 190.5 144.5 190.5 144.5 186.5 144.5 L 4.5 144.5 C 0.5 144.5 0.5 144.5 0.5 140.5 L 0.5 4.5 C 0.5 0.5 0.5 0.5 4.5 0.5" stroke-width="1" stroke="rgba(0,181,173,.2)"></path>
  </g>
</svg>