<svg width="200" height="200" viewBox="0 0 200 200" fill="none" xmlns="http://www.w3.org/2000/svg">
<rect width="200" height="200" rx="100" fill="#F7FAFF"/>
<rect x="53.6616" y="73.3384" width="24.4071" height="113" rx="4" transform="rotate(-45 53.6616 73.3384)" stroke="#3A5779" stroke-width="4"/>
<path d="M70.5991 73.1201L77.8365 65.8827" stroke="#3A5779" stroke-width="4" stroke-linecap="round"/>
<path d="M114.565 117.086L121.803 109.849" stroke="#3A5779" stroke-width="4" stroke-linecap="round"/>
<path d="M78.3774 80.8979L85.6149 73.6605" stroke="#3A5779" stroke-width="4" stroke-linecap="round"/>
<path d="M122.344 124.864L129.581 117.627" stroke="#3A5779" stroke-width="4" stroke-linecap="round"/>
<path d="M86.1558 88.6763L93.3932 81.4389" stroke="#3A5779" stroke-width="4" stroke-linecap="round"/>
<path d="M130.122 132.643L137.359 125.405" stroke="#3A5779" stroke-width="4" stroke-linecap="round"/>
<path d="M58 140L62 144" stroke="#3A5779" stroke-width="5" stroke-linecap="round"/>
<path d="M80.7592 139.717L62.1497 121.107L125.55 57.7072C125.94 57.3166 126.574 57.3166 126.964 57.7072L144.159 74.9024C144.55 75.2929 144.55 75.9261 144.159 76.3166L80.7592 139.717Z" fill="#F7FAFF"/>
<path d="M80.7592 139.717L62.1497 121.107M80.7592 139.717L144.159 76.3166C144.55 75.9261 144.55 75.2929 144.159 74.9024L126.964 57.7072C126.574 57.3166 125.94 57.3166 125.55 57.7072L62.1497 121.107M80.7592 139.717L56.8712 146.007C56.126 146.203 55.4482 145.518 55.6522 144.775L62.1497 121.107" stroke="#3A5779" stroke-width="4"/>
<path d="M120 67L136 83" stroke="#3A5779" stroke-width="4" stroke-linecap="round"/>
</svg>
