<svg width="200" height="200" viewBox="0 0 200 200" fill="none" xmlns="http://www.w3.org/2000/svg">
<rect width="200" height="200" rx="100" fill="#F7FAFF"/>
<path d="M34.5016 111.194L58.9242 130.427C59.6897 131.029 60.632 131.333 61.6029 131.251C67.6125 130.742 90.8943 128.193 115 117.862C130.414 111.256 145.222 102.831 155.42 96.5928C161.69 92.757 161.2 83.77 154.691 80.3555C144.564 75.0426 132.462 75.0905 122.376 80.4834L67.4463 109.856C66.8553 110.172 66.1452 110.171 65.5551 109.853L48.625 100.737C47.5936 100.182 46.3706 100.107 45.2789 100.531L35.5265 104.324C32.6414 105.446 32.0695 109.279 34.5016 111.194Z" stroke="#3A5779" stroke-width="4"/>
<path d="M105 135.185L120.309 100.296L100.692 107.265L92.8417 139.975L105 135.185Z" fill="#F7FAFF" stroke="#3A5779" stroke-width="4"/>
<path d="M85.0192 83.8534L104.517 89.4354L93.5658 95.5392L75.8433 88.5892L85.0192 83.8534Z" stroke="#3A5779" stroke-width="4"/>
<path d="M138 84.3618L148 78.3618" stroke="#3A5779" stroke-width="4" stroke-linecap="round"/>
</svg>
