<svg width="65" height="62" viewBox="0 0 65 62" fill="none" xmlns="http://www.w3.org/2000/svg">
<path fill-rule="evenodd" clip-rule="evenodd" d="M7.02777 14.6539C5.66166 13.2878 5.66165 11.0728 7.02777 9.70673L13.7918 2.94269C15.1579 1.57658 17.3728 1.57657 18.739 2.94269L62.0265 46.2302C63.3926 47.5963 63.3926 49.8112 62.0265 51.1773L55.2624 57.9414C53.8963 59.3075 51.6814 59.3075 50.3153 57.9414L7.02777 14.6539ZM8.67682 11.3558C8.22145 11.8111 8.22145 12.5495 8.67682 13.0048L51.9643 56.2923C52.4197 56.7477 53.158 56.7477 53.6134 56.2923L60.3774 49.5283C60.8328 49.0729 60.8328 48.3346 60.3774 47.8793L17.0899 4.59174C16.6345 4.13637 15.8962 4.13637 15.4409 4.59174L8.67682 11.3558Z" fill="#505F79"/>
<path fill-rule="evenodd" clip-rule="evenodd" d="M15.2535 12.8776C14.7981 12.4223 14.7981 11.6839 15.2535 11.2286L19.4731 7.00897C19.9285 6.5536 20.6668 6.5536 21.1221 7.00897C21.5775 7.46434 21.5775 8.20265 21.1221 8.65802L16.9025 12.8776C16.4472 13.333 15.7089 13.333 15.2535 12.8776Z" fill="#505F79"/>
<path fill-rule="evenodd" clip-rule="evenodd" d="M40.8868 38.5096C40.4314 38.0542 40.4314 37.3159 40.8868 36.8605L45.1064 32.6409C45.5618 32.1856 46.3001 32.1856 46.7554 32.6409C47.2108 33.0963 47.2108 33.8346 46.7554 34.29L42.5358 38.5096C42.0805 38.965 41.3422 38.965 40.8868 38.5096Z" fill="#505F79"/>
<path fill-rule="evenodd" clip-rule="evenodd" d="M19.7884 17.4122C19.333 16.9568 19.333 16.2185 19.7884 15.7631L24.008 11.5435C24.4634 11.0881 25.2017 11.0881 25.657 11.5435C26.1124 11.9989 26.1124 12.7372 25.657 13.1926L21.4374 17.4122C20.9821 17.8675 20.2438 17.8675 19.7884 17.4122Z" fill="#505F79"/>
<path fill-rule="evenodd" clip-rule="evenodd" d="M45.4222 43.0455C44.9668 42.5901 44.9668 41.8518 45.4222 41.3964L49.6418 37.1768C50.0972 36.7214 50.8355 36.7214 51.2908 37.1768C51.7462 37.6322 51.7462 38.3705 51.2908 38.8259L47.0712 43.0455C46.6159 43.5008 45.8776 43.5008 45.4222 43.0455Z" fill="#505F79"/>
<path fill-rule="evenodd" clip-rule="evenodd" d="M24.3233 21.9462C23.8679 21.4909 23.8679 20.7526 24.3233 20.2972L28.5429 16.0776C28.9983 15.6222 29.7366 15.6222 30.192 16.0776C30.6473 16.5329 30.6473 17.2713 30.192 17.7266L25.9724 21.9462C25.517 22.4016 24.7787 22.4016 24.3233 21.9462Z" fill="#505F79"/>
<path fill-rule="evenodd" clip-rule="evenodd" d="M49.9566 47.5814C49.5012 47.126 49.5012 46.3877 49.9566 45.9323L54.1762 41.7127C54.6316 41.2573 55.3699 41.2573 55.8253 41.7127C56.2806 42.1681 56.2806 42.9064 55.8253 43.3618L51.6057 47.5814C51.1503 48.0367 50.412 48.0367 49.9566 47.5814Z" fill="#505F79"/>
<path fill-rule="evenodd" clip-rule="evenodd" d="M7.70079 50.0147C8.27001 49.4454 9.19289 49.4454 9.7621 50.0147L12.0942 52.3468C12.6634 52.916 12.6634 53.8389 12.0942 54.4081C11.525 54.9773 10.6021 54.9773 10.0329 54.4081L7.70079 52.076C7.13158 51.5068 7.13158 50.5839 7.70079 50.0147Z" fill="#505F79"/>
<path d="M22.0007 50.8795L11.1509 40.0297L48.1149 3.06569C48.3426 2.838 48.7118 2.838 48.9395 3.06569L58.9647 13.091C59.1924 13.3187 59.1924 13.6878 58.9647 13.9155L22.0007 50.8795Z" fill="white"/>
<path fill-rule="evenodd" clip-rule="evenodd" d="M8.75503 53.1618L19.7409 50.269L11.7444 42.2726L8.75503 53.1618ZM12.8 40.03L22.0007 49.2307L57.728 13.5035L48.5272 4.30271L12.8 40.03ZM8.37029 55.6747C7.06687 56.018 5.88141 54.82 6.23823 53.5203L10.1082 39.4237L47.2904 2.2414C47.9735 1.55834 49.0809 1.55835 49.764 2.2414L59.7893 12.2667C60.4723 12.9497 60.4723 14.0572 59.7893 14.7403L22.6024 51.9271L8.37029 55.6747Z" fill="#505F79"/>
<path fill-rule="evenodd" clip-rule="evenodd" d="M44.0546 7.65875C44.51 7.20338 45.2483 7.20338 45.7037 7.65875L55.0321 16.9872C55.4875 17.4426 55.4875 18.1809 55.0321 18.6362C54.5767 19.0916 53.8384 19.0916 53.3831 18.6362L44.0546 9.3078C43.5993 8.85243 43.5993 8.11412 44.0546 7.65875Z" fill="#505F79"/>
</svg>
