<svg width="120" height="120" viewBox="0 0 120 120" fill="none" xmlns="http://www.w3.org/2000/svg">
<circle cx="40" cy="82" r="18" fill="#E2EDFF"/>
<path d="M69.3542 26C57.4712 26 45.143 26 38.9928 26C36.7837 26 35 27.7909 35 30V89C35 91.2091 36.7909 93 39 93H82C84.2091 93 86 91.2091 86 89V42.9301M69.3542 26L86 42.9301M69.3542 26V38.9301C69.3542 41.1392 71.145 42.9301 73.3542 42.9301H86" stroke="#679DEF" stroke-width="4" stroke-linejoin="round"/>
<path d="M86.1916 61.7988L78.7346 55.1019L100.61 30.7437C100.979 30.3328 101.611 30.2988 102.022 30.6679L107.991 36.0284C108.402 36.3974 108.436 37.0297 108.067 37.4406L86.1916 61.7988Z" fill="#E2EDFF"/>
<path d="M86.1916 61.7988L78.7346 55.1019M86.1916 61.7988L108.067 37.4406C108.436 37.0297 108.402 36.3974 107.991 36.0284L102.022 30.6679C101.611 30.2988 100.979 30.3328 100.61 30.7437L78.7346 55.1019M86.1916 61.7988L77.7527 64.4492C76.9968 64.6866 76.2782 63.9925 76.4892 63.2288L78.7346 55.1019" stroke="#679DEF" stroke-width="4"/>
<path d="M49 53H71" stroke="#679DEF" stroke-width="4" stroke-linecap="round"/>
<path d="M49 64H71" stroke="#679DEF" stroke-width="4" stroke-linecap="round"/>
<path d="M49 75H71" stroke="#679DEF" stroke-width="4" stroke-linecap="round"/>
</svg>
